<?xml version="1.0" encoding="UTF-8" standalone="no"?>
<svg
   xmlns:dc="http://purl.org/dc/elements/1.1/"
   xmlns:cc="http://creativecommons.org/ns#"
   xmlns:rdf="http://www.w3.org/1999/02/22-rdf-syntax-ns#"
   xmlns:svg="http://www.w3.org/2000/svg"
   xmlns="http://www.w3.org/2000/svg"
   id="svg2"
   viewBox="0 0 18080 5366"
   style="shape-rendering:geometricPrecision; text-rendering:geometricPrecision; image-rendering:optimizeQuality; fill-rule:evenodd; clip-rule:evenodd"
   version="1.1"
   height="77px"
   width="259px"
   xml:space="preserve"><metadata
     id="metadata27"><rdf:RDF><cc:Work
         rdf:about=""><dc:format>image/svg+xml</dc:format><dc:type
           rdf:resource="http://purl.org/dc/dcmitype/StillImage" /><dc:title></dc:title></cc:Work></rdf:RDF></metadata><defs
     id="defs4"><style
       id="style6"
       type="text/css"><![CDATA[
    .str0 {stroke:#FEFEFE;stroke-width:35.7587}
    .str1 {stroke:#51C0EE;stroke-width:354.279;stroke-linecap:round;stroke-linejoin:round}
    .fil1 {fill:none}
    .fil0 {fill:#FEFEFE}
    .fil2 {fill:#51C0EE}
    .fil3 {fill:#51C0EE;fill-rule:nonzero}
   ]]></style></defs><g
     id="Layer_x0020_1"><metadata
       id="CorelCorpID_0Corel-Layer" /><g
       id="_262013640"><path
         id="path11"
         d="M2228 4815c1026,0 1507,-986 1593,-1515 121,-752 -497,-1705 -1587,-2576 -1269,758 -3033,3614 -6,4091z"
         class="fil0 str0" /><g
         id="g13"><line
           id="line15"
           y2="2224"
           x2="2763"
           y1="1845"
           x1="2424"
           class="fil1 str1" /></g><path
         id="path17"
         d="M2312 971c47,57 266,312 304,347l414 457c40,41 65,75 103,116 31,34 69,83 99,121 181,219 403,531 467,829 54,257 49,523 -24,768 -72,240 -161,376 -308,556 -118,146 -314,294 -491,379 -202,98 -445,163 -702,160 -909,-9 -1740,-905 -1472,-1901 78,-289 299,-609 484,-819l304 -348c27,-25 31,-36 53,-60l105 -114c29,-37 424,-496 452,-519 33,-27 68,-83 116,-95l96 123zm-149 -967c-152,21 -227,123 -323,212l-69 80 -383 459c-19,20 -19,18 -34,37l-536 612c-40,39 -174,188 -215,238 -24,29 -45,53 -70,85 -46,57 -87,112 -131,174 -160,222 -307,529 -365,860 -255,1451 846,2618 2207,2604 1305,-13 2423,-1251 2099,-2672 -75,-326 -233,-605 -392,-827 -88,-122 -172,-234 -264,-345 -24,-29 -46,-52 -67,-81l-219 -249c-14,-13 -20,-22 -32,-38l-328 -359c-13,-16 -22,-28 -35,-43l-181 -201c-72,-74 -201,-253 -276,-333l-73 -76c-79,-79 -162,-159 -313,-137z"
         class="fil2" /><path
         id="path19"
         d="M2312 971c47,57 266,312 304,347l414 457c40,41 65,75 103,116 31,34 69,83 99,121 181,219 403,531 467,829 54,257 49,523 -24,768 -72,240 -161,376 -308,556 -118,146 -314,294 -491,379 -202,98 -445,163 -702,160 -909,-9 -1740,-905 -1472,-1901 78,-289 299,-609 484,-819l304 -348c27,-25 31,-36 53,-60l105 -114c29,-37 424,-496 452,-519 33,-27 68,-83 116,-95l96 123zm-149 -967c-152,21 -227,123 -323,212l-69 80 -383 459c-19,20 -19,18 -34,37l-536 612c-40,39 -174,188 -215,238 -24,29 -45,53 -70,85 -46,57 -87,112 -131,174 -160,222 -307,529 -365,860 -255,1451 846,2618 2207,2604 1305,-13 2423,-1251 2099,-2672 -75,-326 -233,-605 -392,-827 -88,-122 -172,-234 -264,-345 -24,-29 -46,-52 -67,-81l-219 -249c-14,-13 -20,-22 -32,-38l-328 -359c-13,-16 -22,-28 -35,-43l-181 -201c-72,-74 -201,-253 -276,-333l-73 -76c-79,-79 -162,-159 -313,-137z"
         class="fil2" /><path
         id="path21"
         d="M5647 3326l641 0c30,0 56,-6 79,-18 24,-11 42,-28 56,-48 14,-20 21,-44 21,-69 0,-25 -7,-47 -21,-67 -14,-21 -32,-38 -56,-50 -23,-12 -49,-19 -79,-19l-786 0c-34,0 -64,8 -90,23 -25,14 -46,33 -60,56 -15,23 -23,47 -23,73l0 1610c0,25 7,47 21,68 14,21 33,38 57,51 24,13 51,19 81,20 29,-1 56,-7 80,-20 23,-13 43,-30 57,-51 14,-21 21,-43 22,-68l0 -1491zm1199 1632c31,0 61,-7 89,-21 28,-14 50,-33 67,-56l737 -1240 0 1176c0,26 8,49 22,70 15,21 35,39 59,51 25,13 51,20 81,20 29,0 55,-7 79,-20 23,-12 42,-30 55,-51 14,-21 21,-44 22,-70l0 -1637c-1,-29 -8,-54 -22,-77 -15,-22 -35,-40 -60,-53 -25,-12 -54,-19 -86,-19 -32,0 -63,7 -91,22 -29,14 -51,33 -68,58 -19,30 -44,70 -74,122 -31,51 -66,110 -105,176 -39,66 -80,136 -124,209 -43,74 -85,147 -129,221 -43,73 -84,143 -123,210 -40,67 -75,126 -106,179 -31,53 -56,95 -76,126l0 -1182c0,-26 -8,-50 -22,-71 -15,-21 -34,-38 -59,-51 -24,-12 -51,-19 -80,-19 -31,0 -57,7 -81,19 -23,13 -41,30 -55,51 -13,21 -20,45 -20,71l0 1637c0,27 7,52 21,74 15,23 34,41 60,55 25,13 55,20 89,20zm2855 -1903l-812 0c-25,0 -50,6 -76,18 -25,12 -47,28 -64,50 -18,22 -27,48 -28,78l-43 815c-9,154 -26,285 -53,395 -27,109 -64,192 -112,249 -38,0 -72,6 -101,17 -29,12 -52,30 -69,55 -17,24 -26,55 -26,93l0 282c0,38 4,71 14,101 10,29 26,52 49,68 22,17 54,25 93,26 27,-1 53,-7 76,-19 24,-13 43,-30 57,-50 15,-20 22,-43 23,-67l0 -234 1115 0 0 234c1,26 7,49 21,70 13,20 32,36 55,48 23,12 50,17 80,18 41,-1 72,-10 96,-26 24,-17 41,-40 51,-70 10,-29 15,-62 15,-99l0 -282c0,-36 -9,-67 -25,-91 -16,-25 -39,-43 -67,-55 -29,-13 -62,-19 -99,-19l0 -1459c0,-27 -8,-51 -23,-73 -16,-22 -36,-40 -62,-53 -25,-13 -54,-20 -85,-20zm-705 964l26 -693 531 0 0 1334 -707 0c44,-77 79,-170 103,-279 24,-108 40,-229 47,-362zm1933 247c141,0 264,-23 367,-70 104,-47 184,-114 240,-204 57,-89 85,-198 86,-327 1,-80 -11,-157 -36,-229 -25,-73 -64,-138 -119,-195 -54,-57 -125,-102 -214,-136 -89,-32 -197,-49 -324,-50l-425 0c-33,0 -63,8 -91,23 -27,14 -49,33 -65,57 -17,24 -25,51 -26,80l0 1600c1,26 8,49 23,71 14,22 33,39 57,52 25,13 51,20 79,20 29,0 56,-7 80,-20 24,-14 43,-32 57,-53 14,-22 21,-45 22,-70l0 -549 289 0zm-289 -937l289 0c76,1 139,10 188,29 49,19 87,44 115,75 27,32 46,68 57,107 11,40 16,80 15,122 0,113 -32,196 -95,251 -64,55 -157,82 -280,82l-289 0 0 -666zm1913 1629c118,0 221,-18 309,-54 89,-35 162,-85 221,-148 59,-63 104,-137 133,-220 30,-83 45,-174 45,-270l0 -548c0,-94 -13,-182 -39,-265 -27,-82 -68,-155 -125,-218 -56,-64 -129,-113 -219,-149 -90,-36 -199,-55 -325,-55 -127,0 -235,19 -325,55 -90,36 -164,85 -220,149 -56,63 -98,136 -124,218 -26,83 -40,171 -39,265l0 548c0,96 15,187 44,270 30,83 74,157 133,220 59,63 133,113 222,148 88,36 191,54 309,54zm0 -1656c95,1 171,19 228,53 57,34 99,83 124,145 26,62 38,135 38,218l0 548c0,83 -14,156 -42,218 -28,63 -71,112 -129,147 -57,35 -131,53 -219,53 -90,0 -163,-18 -221,-53 -58,-35 -100,-84 -128,-147 -28,-62 -41,-135 -41,-218l0 -548c-1,-83 12,-156 37,-218 26,-62 67,-111 124,-145 58,-34 134,-52 229,-53zm1352 -133c0,-25 -8,-48 -22,-69 -14,-21 -33,-37 -57,-50 -24,-12 -51,-19 -80,-19 -30,0 -57,7 -81,19 -24,13 -43,29 -57,50 -14,21 -20,44 -21,69l0 1648c1,26 7,49 21,70 14,21 33,39 57,51 24,13 51,20 81,20 29,0 56,-7 80,-20 24,-12 43,-30 57,-51 14,-21 22,-44 22,-70l0 -687 98 0 593 764c17,22 37,38 59,48 23,11 48,16 74,16 31,-1 59,-9 81,-24 24,-16 41,-35 53,-57 12,-22 19,-44 19,-65 0,-11 -2,-21 -6,-33 -3,-11 -9,-24 -17,-39l-590 -745 590 -748c8,-14 14,-26 17,-37 4,-11 6,-22 6,-33 0,-21 -7,-44 -19,-66 -12,-22 -29,-41 -53,-57 -22,-15 -50,-23 -81,-23 -26,0 -51,5 -74,15 -22,10 -42,26 -59,49l-590 761 -101 0 0 -687zm1514 1366l673 0 93 258c12,32 25,61 39,85 14,24 32,43 53,57 22,14 50,20 84,21 31,0 59,-6 84,-17 24,-11 44,-27 59,-47 14,-21 21,-45 22,-72 0,-7 -1,-16 -2,-26 -2,-10 -4,-19 -7,-25l-563 -1578c-11,-32 -25,-59 -41,-83 -16,-24 -36,-43 -60,-56 -25,-14 -56,-21 -93,-21 -37,0 -68,7 -93,21 -25,14 -45,33 -61,57 -16,24 -29,51 -40,82l-563 1578c-1,6 -3,15 -4,25 -1,10 -2,19 -2,26 1,27 8,51 23,72 15,20 35,36 60,47 24,11 52,17 82,17 18,0 37,-4 58,-12 20,-8 39,-20 56,-35 17,-15 29,-33 36,-54l107 -320zm341 -1065c21,92 44,183 71,274 28,89 57,179 87,268 30,89 60,178 91,267l-500 0c44,-133 87,-267 131,-399 44,-133 83,-270 120,-410zm1627 796c141,0 264,-23 367,-70 104,-47 184,-114 240,-204 57,-89 85,-198 86,-327 1,-80 -11,-157 -36,-229 -25,-73 -64,-138 -119,-195 -54,-57 -125,-102 -214,-136 -89,-32 -197,-49 -324,-50l-425 0c-33,0 -63,8 -91,23 -27,14 -49,33 -65,57 -17,24 -25,51 -26,80l0 1600c1,26 8,49 23,71 14,22 33,39 57,52 25,13 51,20 79,20 29,0 56,-7 80,-20 24,-14 43,-32 57,-53 14,-22 21,-45 22,-70l0 -549 289 0zm-289 -937l289 0c76,1 139,10 188,29 49,19 87,44 115,75 27,32 46,68 57,107 11,40 16,80 16,122 0,113 -33,196 -96,251 -64,55 -157,82 -280,82l-289 0 0 -666z"
         class="fil3" /><path
         id="path23"
         d="M5729 2286c-40,-11 -82,-16 -126,-16 -87,0 -153,17 -196,53 -43,35 -65,88 -65,158l0 4c0,43 9,81 26,113 17,32 43,57 77,75 34,18 77,27 128,27 38,0 73,-6 104,-17 31,-11 60,-28 86,-50 13,22 29,37 47,48 19,10 40,15 64,15 27,0 48,-5 62,-15 14,-10 21,-24 21,-44 0,-13 -3,-24 -10,-33 -7,-9 -17,-14 -32,-17 -7,-1 -13,-3 -18,-6 -6,-3 -10,-7 -13,-13 -3,-6 -4,-14 -4,-26l0 -284c0,-62 -9,-114 -27,-156 -18,-43 -47,-75 -86,-96 -39,-22 -90,-33 -153,-33 -27,0 -54,2 -79,6 -26,4 -49,10 -70,18 -20,8 -37,19 -49,32 -12,13 -18,29 -18,48 0,10 2,19 6,29 4,9 10,17 18,23 9,6 20,9 33,9 7,0 13,-1 20,-2 6,-1 12,-3 16,-5l27 -11c12,-5 24,-9 37,-13 12,-3 28,-5 46,-5 43,0 75,10 96,30 22,21 32,52 32,93l0 61zm-122 98c18,0 38,2 59,4 22,3 43,7 63,12l0 125c-21,18 -43,30 -65,38 -21,8 -44,11 -68,11 -25,0 -46,-3 -61,-10 -15,-7 -27,-17 -34,-30 -6,-13 -10,-29 -10,-48l0 -4c0,-18 3,-34 9,-49 6,-15 17,-26 34,-35 17,-9 41,-14 73,-14zm991 -203c0,-37 -9,-71 -27,-100 -19,-30 -47,-53 -84,-70 -38,-18 -85,-26 -141,-27l-188 0c-14,1 -27,4 -39,10 -11,7 -20,16 -26,26 -7,11 -10,23 -10,36l0 564c0,13 3,25 10,35 6,11 15,19 26,25 12,7 25,10 39,10l201 0c57,0 104,-9 141,-25 38,-17 66,-40 85,-70 18,-29 27,-63 27,-102 1,-38 -9,-70 -30,-97 -20,-27 -52,-48 -97,-65 41,-16 69,-36 87,-61 18,-25 27,-54 26,-89zm-135 300c0,31 -9,54 -27,69 -18,14 -44,22 -79,21l-123 0 0 -183 109 0c33,1 58,5 76,14 17,9 29,21 35,35 6,14 9,28 9,44zm-229 -376l109 0c34,-1 60,7 78,21 19,15 28,38 28,69 0,14 -2,27 -8,40 -5,12 -15,23 -30,31 -15,7 -37,12 -65,12l-112 0 0 -173zm810 15l125 0c13,0 25,-3 36,-9 10,-6 19,-14 25,-24 7,-10 10,-22 10,-34 0,-13 -3,-25 -10,-35 -6,-11 -15,-19 -25,-25 -11,-6 -23,-9 -36,-9l-400 0c-13,0 -26,3 -37,9 -10,6 -19,14 -25,25 -6,10 -9,22 -9,35 0,12 3,24 9,34 6,10 15,18 25,24 11,6 23,9 37,9l124 0 0 510c1,14 4,26 10,37 7,10 16,19 27,25 11,6 24,9 39,9 14,0 27,-3 38,-9 12,-6 20,-15 27,-25 7,-11 10,-23 10,-37l0 -510zm569 581c46,0 87,-6 122,-19 35,-13 65,-31 89,-54 23,-23 41,-50 53,-81 13,-31 19,-64 19,-100l0 -221c0,-36 -6,-69 -19,-100 -12,-31 -30,-58 -53,-81 -24,-23 -54,-41 -89,-54 -35,-12 -76,-19 -122,-19 -46,0 -87,7 -122,19 -35,13 -64,31 -88,54 -24,23 -42,50 -54,81 -12,31 -18,64 -18,100l0 221c0,36 6,69 18,100 12,31 30,58 54,81 24,23 53,41 88,54 35,13 76,19 122,19zm0 -132c-43,-1 -76,-12 -98,-33 -22,-21 -33,-51 -33,-89l0 -222c0,-38 11,-67 33,-88 22,-21 55,-32 98,-32 44,0 76,11 99,32 21,21 33,50 33,88l0 222c0,38 -12,68 -33,89 -23,21 -55,32 -99,33zm807 12c15,0 29,-4 41,-12 12,-7 22,-17 30,-30l143 -262 0 353c0,13 3,25 10,36 6,11 15,19 26,26 12,6 25,9 39,9 13,0 25,-3 37,-9 11,-7 20,-15 27,-26 6,-11 10,-23 10,-36l0 -580c0,-14 -4,-27 -11,-38 -7,-12 -16,-20 -28,-26 -12,-7 -25,-10 -41,-10 -17,0 -33,4 -44,12 -12,7 -22,18 -30,31l-211 374 -211 -374c-8,-13 -18,-24 -30,-31 -12,-8 -27,-12 -44,-12 -15,0 -29,3 -41,10 -12,6 -21,14 -28,26 -7,11 -10,24 -10,38l0 580c0,13 3,25 10,36 6,11 15,19 26,26 11,6 23,9 38,9 13,0 26,-3 37,-9 12,-7 21,-15 28,-26 6,-11 10,-23 10,-36l0 -353 143 262c7,13 17,23 29,30 12,8 26,12 42,12l3 0zm806 120c46,0 87,-6 122,-19 35,-13 65,-31 89,-54 23,-23 41,-50 53,-81 13,-31 19,-64 19,-100l0 -221c0,-36 -6,-69 -19,-100 -12,-31 -30,-58 -53,-81 -24,-23 -54,-41 -89,-54 -35,-12 -76,-19 -122,-19 -46,0 -87,7 -122,19 -35,13 -64,31 -88,54 -24,23 -42,50 -54,81 -12,31 -18,64 -18,100l0 221c0,36 6,69 18,100 12,31 30,58 54,81 24,23 53,41 88,54 35,13 76,19 122,19zm0 -132c-43,-1 -76,-12 -98,-33 -22,-21 -33,-51 -33,-89l0 -222c0,-38 11,-67 33,-88 22,-21 55,-32 98,-32 44,0 76,11 99,32 21,21 33,50 33,88l0 222c0,38 -12,68 -33,89 -23,21 -55,32 -99,33zm730 -772c-15,0 -27,-2 -38,-7 -10,-5 -19,-11 -28,-19 -8,-8 -15,-16 -22,-24 -6,-7 -12,-13 -20,-18 -8,-6 -19,-9 -32,-9 -10,0 -19,2 -29,6 -8,4 -15,11 -20,20 -4,9 -5,22 -1,39 4,18 13,34 26,49 13,15 29,27 47,38 18,10 38,19 58,24 20,6 39,9 57,9 18,0 37,-3 57,-8 19,-6 39,-13 57,-23 19,-11 35,-23 49,-38 14,-15 23,-32 28,-51 3,-17 3,-30 -2,-39 -4,-9 -11,-16 -20,-20 -9,-4 -19,-6 -29,-6 -11,0 -21,3 -29,7 -8,5 -16,11 -22,20 -7,8 -15,16 -23,24 -8,8 -17,14 -28,19 -10,5 -22,7 -36,7zm-207 907c15,0 28,-4 41,-10 13,-7 23,-17 32,-29l271 -428 0 393c0,13 3,26 10,37 6,11 15,20 26,27 12,6 25,10 39,10 15,0 27,-4 39,-10 11,-7 20,-16 27,-27 6,-11 10,-24 10,-37l0 -577c0,-15 -4,-28 -10,-40 -7,-11 -16,-20 -28,-27 -12,-7 -26,-10 -42,-10 -15,0 -30,3 -43,10 -14,7 -24,17 -32,31l-271 427 0 -395c-1,-14 -4,-26 -11,-37 -7,-11 -16,-19 -28,-26 -11,-7 -24,-10 -38,-10 -15,0 -28,3 -39,10 -11,7 -20,15 -26,26 -6,11 -9,23 -9,37l0 578c0,15 3,27 10,39 7,11 17,21 29,28 12,6 27,10 43,10zm837 -303l44 0 170 246c6,9 12,17 19,25 7,8 16,14 25,19 9,5 21,7 34,8 13,0 25,-3 35,-7 11,-5 19,-12 26,-21 6,-8 10,-19 11,-32 0,-7 -1,-14 -4,-21 -2,-8 -5,-14 -9,-20l-183 -259 183 -257c4,-6 7,-12 9,-20 3,-8 4,-15 4,-22 -1,-12 -5,-23 -11,-31 -7,-9 -15,-16 -26,-21 -10,-5 -22,-8 -35,-8 -12,0 -22,3 -32,8 -9,5 -18,11 -25,19 -8,9 -15,18 -22,28l-161 229 -52 0 0 -215c0,-14 -3,-26 -10,-37 -7,-11 -17,-19 -28,-26 -12,-7 -24,-10 -39,-10 -14,0 -27,3 -38,10 -11,7 -20,15 -26,26 -6,11 -9,22 -10,35l0 579c1,13 4,25 10,36 6,11 15,20 26,26 11,7 24,10 38,11 15,-1 27,-4 39,-11 11,-6 21,-15 28,-26 7,-11 10,-23 10,-36l0 -225zm835 -115c-41,-11 -83,-16 -126,-16 -87,0 -153,17 -196,53 -44,35 -65,88 -65,158l0 4c0,43 8,81 25,113 18,32 44,57 78,75 34,18 76,27 127,27 39,0 73,-6 105,-17 31,-11 60,-28 85,-50 14,22 29,37 48,48 18,10 40,15 64,15 27,0 47,-5 61,-15 14,-10 22,-24 22,-44 0,-13 -4,-24 -10,-33 -7,-9 -18,-14 -32,-17 -7,-1 -13,-3 -19,-6 -5,-3 -9,-7 -12,-13 -3,-6 -4,-14 -4,-26l0 -284c0,-62 -9,-114 -27,-156 -18,-43 -47,-75 -86,-96 -39,-22 -90,-33 -153,-33 -27,0 -54,2 -80,6 -25,4 -48,10 -69,18 -21,8 -37,19 -49,32 -12,13 -18,29 -19,48 0,10 2,19 6,29 4,9 11,17 19,23 8,6 19,9 33,9 6,0 13,-1 20,-2 6,-1 12,-3 16,-5l27 -11c11,-5 23,-9 36,-13 13,-3 28,-5 46,-5 43,0 76,10 97,30 21,21 32,52 32,93l0 61zm-122 98c18,0 38,2 59,4 21,3 42,7 63,12l0 125c-22,18 -43,30 -65,38 -22,8 -45,11 -68,11 -25,0 -46,-3 -61,-10 -16,-7 -27,-17 -34,-30 -7,-13 -10,-29 -10,-48l0 -4c0,-18 2,-34 8,-49 6,-15 18,-26 35,-35 16,-9 41,-14 73,-14z"
         class="fil3" /></g></g></svg>