<?xml version="1.0" encoding="UTF-8" standalone="no"?>
<!-- Creator: CorelDRAW X6 -->

<svg
   xmlns:dc="http://purl.org/dc/elements/1.1/"
   xmlns:cc="http://creativecommons.org/ns#"
   xmlns:rdf="http://www.w3.org/1999/02/22-rdf-syntax-ns#"
   xmlns:svg="http://www.w3.org/2000/svg"
   xmlns="http://www.w3.org/2000/svg"
   xmlns:sodipodi="http://sodipodi.sourceforge.net/DTD/sodipodi-0.dtd"
   xmlns:inkscape="http://www.inkscape.org/namespaces/inkscape"
   xml:space="preserve"
   width="105.655mm"
   height="128.866mm"
   version="1.1"
   style="shape-rendering:geometricPrecision; text-rendering:geometricPrecision; image-rendering:optimizeQuality; fill-rule:evenodd; clip-rule:evenodd"
   viewBox="0 0 1599 1951"
   id="svg2"
   inkscape:version="0.91 r13725"
   sodipodi:docname="арома.svg"><metadata
     id="metadata25"><rdf:RDF><cc:Work
         rdf:about=""><dc:format>image/svg+xml</dc:format><dc:type
           rdf:resource="http://purl.org/dc/dcmitype/StillImage" /></cc:Work></rdf:RDF></metadata><sodipodi:namedview
     pagecolor="#ffffff"
     bordercolor="#666666"
     borderopacity="1"
     objecttolerance="10"
     gridtolerance="10"
     guidetolerance="10"
     inkscape:pageopacity="0"
     inkscape:pageshadow="2"
     inkscape:window-width="751"
     inkscape:window-height="480"
     id="namedview23"
     showgrid="false"
     inkscape:zoom="0.51685042"
     inkscape:cx="187.18405"
     inkscape:cy="228.3059"
     inkscape:window-x="0"
     inkscape:window-y="0"
     inkscape:window-maximized="0"
     inkscape:current-layer="Layer_x0020_1" /><defs
     id="defs4"><style
       type="text/css"
       id="style6"><![CDATA[
    .str2 {stroke:#FEFEFE;stroke-width:3.02765}
    .str0 {stroke:#FEFEFE;stroke-width:40.5902}
    .str1 {stroke:#FEFEFE;stroke-width:13.9575;stroke-dasharray:13.957464 69.787321 13.957464 139.574642}
    .fil1 {fill:none}
    .fil2 {fill:#FEFEFE}
    .fil0 {fill:#51C0EE}
   ]]></style></defs><g
     id="Layer_x0020_1"><metadata
       id="CorelCorpID_0Corel-Layer" /><path
       class="fil0"
       d="M787 1c-56,8 -83,45 -118,78l-25 28 -140 168c-6,7 -6,6 -12,13l-194 222c-15,15 -64,69 -79,87 -9,11 -16,19 -25,31 -17,20 -32,41 -48,63 -58,81 -112,193 -133,313 -92,528 308,952 803,947 474,-5 881,-455 763,-972 -27,-118 -85,-220 -142,-300 -33,-45 -63,-86 -96,-126 -9,-11 -17,-19 -25,-29l-79 -91c-5,-5 -8,-8 -12,-14l-119 -130c-5,-6 -8,-11 -13,-16l-66 -73c-26,-27 -73,-92 -100,-121l-27 -28c-28,-28 -59,-58 -113,-50z"
       id="path10" /><g
       id="g12"><path
         class="fil1 str0"
         d="M782 142c-49,7 -72,39 -103,68l-22 25 -122 146c-6,6 -6,6 -10,12l-171 194c-12,13 -55,60 -68,76 -8,9 -14,17 -22,27 -15,18 -28,35 -42,55 -51,71 -98,168 -116,273 -81,462 269,832 702,828 414,-4 769,-398 666,-849 -23,-104 -73,-193 -124,-263 -28,-39 -55,-74 -84,-110 -8,-9 -14,-16 -21,-25l-70 -80c-4,-4 -6,-7 -10,-12l-104 -114c-5,-5 -7,-9 -12,-13l-57 -64c-23,-24 -64,-81 -88,-106l-23 -24c-25,-25 -51,-51 -99,-44z"
         id="path14" /><path
         id="1"
         class="fil0"
         d="M782 142c-49,7 -72,39 -103,68l-22 25 -122 146c-6,6 -6,6 -10,12l-171 194c-12,13 -55,60 -68,76 -8,9 -14,17 -22,27 -15,18 -28,35 -42,55 -51,71 -98,168 -116,273 -81,462 269,832 702,828 414,-4 769,-398 666,-849 -23,-104 -73,-193 -124,-263 -28,-39 -55,-74 -84,-110 -8,-9 -14,-16 -21,-25l-70 -80c-4,-4 -6,-7 -10,-12l-104 -114c-5,-5 -7,-9 -12,-13l-57 -64c-23,-24 -64,-81 -88,-106l-23 -24c-25,-25 -51,-51 -99,-44z" /></g><g
       id="g17"><path
         class="fil1 str1"
         d="M781 62c-53,7 -79,42 -112,73l-24 28 -133 159c-6,7 -6,6 -11,13l-186 212c-14,13 -60,65 -74,82 -9,10 -16,18 -25,29 -15,20 -30,39 -45,61 -55,77 -106,183 -127,297 -88,503 293,907 765,902 452,-4 839,-433 726,-925 -25,-113 -80,-210 -135,-286 -31,-43 -60,-81 -92,-120 -8,-10 -15,-18 -23,-28l-76 -86c-4,-5 -6,-8 -11,-13l-113 -125c-5,-5 -8,-9 -13,-14l-62 -70c-25,-26 -70,-88 -96,-115l-25 -27c-27,-27 -56,-55 -108,-47z"
         id="path19" /></g></g></svg>